HIERARCHY
ROOT Hips
{
	OFFSET -318.810852 89.264893 -575.244751
	CHANNELS 6 Xposition Yposition Zposition Zrotation Yrotation Xrotation 
	JOINT Spine
	{
		OFFSET -0.000000 8.814246 -2.080107
		CHANNELS 3 Zrotation Yrotation Xrotation
		JOINT Spine1
		{
			OFFSET -0.000000 8.844141 0.000000
			CHANNELS 3 Zrotation Yrotation Xrotation
			JOINT Spine2
			{
				OFFSET 0.000000 11.682268 0.000000
				CHANNELS 3 Zrotation Yrotation Xrotation
				JOINT Spine3
				{
					OFFSET -0.000000 11.746700 0.000000
					CHANNELS 3 Zrotation Yrotation Xrotation
					JOINT Neck
					{
						OFFSET -0.000000 17.658264 0.000000
						CHANNELS 3 Zrotation Yrotation Xrotation
						JOINT Neck1
						{
							OFFSET 0.000000 5.101515 -0.000000
							CHANNELS 3 Zrotation Yrotation Xrotation
							JOINT Head
							{
								OFFSET -0.000000 5.101515 -0.000000
								CHANNELS 3 Zrotation Yrotation Xrotation
								JOINT HeadEnd
								{
									OFFSET 0.000000 11.655085 -0.000000
									CHANNELS 3 Zrotation Yrotation Xrotation
									End Site
									{
										OFFSET 0.000000 0.000000 0.000000
									}
								}
							}
						}
					}
					JOINT RightShoulder
					{
						OFFSET -2.625389 11.175210 -0.000000
						CHANNELS 3 Zrotation Yrotation Xrotation
						JOINT RightArm
						{
							OFFSET 0.000000 10.434715 -0.000000
							CHANNELS 3 Zrotation Yrotation Xrotation
							JOINT RightForeArm
							{
								OFFSET -0.000000 29.628420 0.000000
								CHANNELS 3 Zrotation Yrotation Xrotation
								JOINT RightHand
								{
									OFFSET -0.000000 22.857611 0.000000
									CHANNELS 3 Zrotation Yrotation Xrotation
									JOINT RightHandThumb1
									{
										OFFSET -2.867323 3.959563 2.944291
										CHANNELS 3 Zrotation Yrotation Xrotation
										JOINT RightHandThumb2
										{
											OFFSET -0.000000 3.350399 0.000000
											CHANNELS 3 Zrotation Yrotation Xrotation
											JOINT RightHandThumb3
											{
												OFFSET -0.000000 3.756509 -0.000000
												CHANNELS 3 Zrotation Yrotation Xrotation
												JOINT RightHandThumb4
												{
													OFFSET -0.000000 3.147345 0.000000
													CHANNELS 3 Zrotation Yrotation Xrotation
													End Site
													{
														OFFSET 0.000000 0.000000 0.000000
													}
												}
											}
										}
									}
									JOINT RightHandIndex1
									{
										OFFSET -0.086752 10.030893 2.345280
										CHANNELS 3 Zrotation Yrotation Xrotation
										JOINT RightHandIndex2
										{
											OFFSET 0.000000 4.061090 -0.000000
											CHANNELS 3 Zrotation Yrotation Xrotation
											JOINT RightHandIndex3
											{
												OFFSET 0.000000 3.248873 -0.000000
												CHANNELS 3 Zrotation Yrotation Xrotation
												JOINT RightHandIndex4
												{
													OFFSET 0.000000 2.639709 0.000000
													CHANNELS 3 Zrotation Yrotation Xrotation
													End Site
													{
														OFFSET 0.000000 0.000000 0.000000
													}
												}
											}
										}
									}
									JOINT RightHandMiddle1
									{
										OFFSET 0.104102 9.502952 0.006768
										CHANNELS 3 Zrotation Yrotation Xrotation
										JOINT RightHandMiddle2
										{
											OFFSET 0.000000 4.568727 0.000000
											CHANNELS 3 Zrotation Yrotation Xrotation
											JOINT RightHandMiddle3
											{
												OFFSET 0.000000 3.654981 -0.000000
												CHANNELS 3 Zrotation Yrotation Xrotation
												JOINT RightHandMiddle4
												{
													OFFSET -0.000000 2.741236 0.000000
													CHANNELS 3 Zrotation Yrotation Xrotation
													End Site
													{
														OFFSET 0.000000 0.000000 0.000000
													}
												}
											}
										}
									}
									JOINT RightHandRing1
									{
										OFFSET 0.086752 8.921708 -2.267442
										CHANNELS 3 Zrotation Yrotation Xrotation
										JOINT RightHandRing2
										{
											OFFSET 0.000000 4.061090 -0.000000
											CHANNELS 3 Zrotation Yrotation Xrotation
											JOINT RightHandRing3
											{
												OFFSET -0.000000 3.654981 0.000000
												CHANNELS 3 Zrotation Yrotation Xrotation
												JOINT RightHandRing4
												{
													OFFSET -0.000000 2.741236 0.000000
													CHANNELS 3 Zrotation Yrotation Xrotation
													End Site
													{
														OFFSET 0.000000 0.000000 0.000000
													}
												}
											}
										}
									}
									JOINT RightHandPinky1
									{
										OFFSET -0.173504 7.976997 -4.467199
										CHANNELS 3 Zrotation Yrotation Xrotation
										JOINT RightHandPinky2
										{
											OFFSET -0.000000 3.350399 0.000000
											CHANNELS 3 Zrotation Yrotation Xrotation
											JOINT RightHandPinky3
											{
												OFFSET 0.000000 2.842763 0.000000
												CHANNELS 3 Zrotation Yrotation Xrotation
												JOINT RightHandPinky4
												{
													OFFSET 0.000000 2.639709 0.000000
													CHANNELS 3 Zrotation Yrotation Xrotation
													End Site
													{
														OFFSET 0.000000 0.000000 0.000000
													}
												}
											}
										}
									}
									JOINT RightForeArmEnd
									{
										OFFSET 0.000000 0.000000 0.000000
										CHANNELS 3 Zrotation Yrotation Xrotation
										End Site
										{
											OFFSET 0.000000 0.000000 0.000000
										}
									}
								}
								JOINT RightArmEnd
								{
									OFFSET 0.000000 0.000000 0.000000
									CHANNELS 3 Zrotation Yrotation Xrotation
									End Site
									{
										OFFSET 0.000000 0.000000 0.000000
									}
								}
							}
						}
					}
					JOINT LeftShoulder
					{
						OFFSET 2.625389 11.175210 0.000000
						CHANNELS 3 Zrotation Yrotation Xrotation
						JOINT LeftArm
						{
							OFFSET -0.000000 10.813635 -0.000000
							CHANNELS 3 Zrotation Yrotation Xrotation
							JOINT LeftForeArm
							{
								OFFSET -0.000000 28.724781 -0.000000
								CHANNELS 3 Zrotation Yrotation Xrotation
								JOINT LeftHand
								{
									OFFSET 0.644384 25.716167 -0.328871
									CHANNELS 3 Zrotation Yrotation Xrotation
									JOINT LeftHandThumb1
									{
										OFFSET 2.867323 3.959563 2.944291
										CHANNELS 3 Zrotation Yrotation Xrotation
										JOINT LeftHandThumb2
										{
											OFFSET 0.000000 3.350399 0.000000
											CHANNELS 3 Zrotation Yrotation Xrotation
											JOINT LeftHandThumb3
											{
												OFFSET -0.000000 3.756509 -0.000000
												CHANNELS 3 Zrotation Yrotation Xrotation
												JOINT LeftHandThumb4
												{
													OFFSET 0.000000 3.100000 0.000000
													CHANNELS 3 Zrotation Yrotation Xrotation
													End Site
													{
														OFFSET 0.000000 0.000000 0.000000
													}
												}
											}
										}
									}
									JOINT LeftHandIndex1
									{
										OFFSET 0.086752 10.030893 2.345280
										CHANNELS 3 Zrotation Yrotation Xrotation
										JOINT LeftHandIndex2
										{
											OFFSET 0.000000 4.061090 0.000000
											CHANNELS 3 Zrotation Yrotation Xrotation
											JOINT LeftHandIndex3
											{
												OFFSET -0.000000 3.248873 -0.000000
												CHANNELS 3 Zrotation Yrotation Xrotation
												JOINT LeftHandIndex4
												{
													OFFSET 0.000000 2.639709 0.000000
													CHANNELS 3 Zrotation Yrotation Xrotation
													End Site
													{
														OFFSET 0.000000 0.000000 0.000000
													}
												}
											}
										}
									}
									JOINT LeftHandMiddle1
									{
										OFFSET -0.104102 9.502952 0.006768
										CHANNELS 3 Zrotation Yrotation Xrotation
										JOINT LeftHandMiddle2
										{
											OFFSET -0.000000 4.568727 -0.000000
											CHANNELS 3 Zrotation Yrotation Xrotation
											JOINT LeftHandMiddle3
											{
												OFFSET -0.000000 3.654981 -0.000000
												CHANNELS 3 Zrotation Yrotation Xrotation
												JOINT LeftHandMiddle4
												{
													OFFSET 0.000000 2.741236 0.000000
													CHANNELS 3 Zrotation Yrotation Xrotation
													End Site
													{
														OFFSET 0.000000 0.000000 0.000000
													}
												}
											}
										}
									}
									JOINT LeftHandRing1
									{
										OFFSET -0.086752 8.921708 -2.267442
										CHANNELS 3 Zrotation Yrotation Xrotation
										JOINT LeftHandRing2
										{
											OFFSET 0.000000 4.061090 0.000000
											CHANNELS 3 Zrotation Yrotation Xrotation
											JOINT LeftHandRing3
											{
												OFFSET 0.000000 3.654981 -0.000000
												CHANNELS 3 Zrotation Yrotation Xrotation
												JOINT LeftHandRing4
												{
													OFFSET -0.000000 2.741236 -0.000000
													CHANNELS 3 Zrotation Yrotation Xrotation
													End Site
													{
														OFFSET 0.000000 0.000000 0.000000
													}
												}
											}
										}
									}
									JOINT LeftHandPinky1
									{
										OFFSET 0.173504 7.976997 -4.467199
										CHANNELS 3 Zrotation Yrotation Xrotation
										JOINT LeftHandPinky2
										{
											OFFSET -0.000000 3.350399 -0.000000
											CHANNELS 3 Zrotation Yrotation Xrotation
											JOINT LeftHandPinky3
											{
												OFFSET 0.000000 2.842763 -0.000000
												CHANNELS 3 Zrotation Yrotation Xrotation
												JOINT LeftHandPinky4
												{
													OFFSET -0.000000 2.639709 -0.000000
													CHANNELS 3 Zrotation Yrotation Xrotation
													End Site
													{
														OFFSET 0.000000 0.000000 0.000000
													}
												}
											}
										}
									}
									JOINT LeftForeArmEnd
									{
										OFFSET 0.000000 0.000000 0.000000
										CHANNELS 3 Zrotation Yrotation Xrotation
										End Site
										{
											OFFSET 0.000000 0.000000 0.000000
										}
									}
								}
								JOINT LeftArmEnd
								{
									OFFSET 0.000000 0.000000 0.000000
									CHANNELS 3 Zrotation Yrotation Xrotation
									End Site
									{
										OFFSET 0.000000 0.000000 0.000000
									}
								}
							}
						}
					}
				}
			}
		}
	}
	JOINT RightUpLeg
	{
		OFFSET -11.289943 -0.000000 0.000000
		CHANNELS 3 Zrotation Yrotation Xrotation
		JOINT RightLeg
		{
			OFFSET 0.000000 -38.200325 -0.000000
			CHANNELS 3 Zrotation Yrotation Xrotation
			JOINT RightFoot
			{
				OFFSET -0.000000 -39.900856 0.000000
				CHANNELS 3 Zrotation Yrotation Xrotation
				JOINT RightToeBase
				{
					OFFSET 0.000000 0.000000 15.261641
					CHANNELS 3 Zrotation Yrotation Xrotation
					JOINT RightToeBaseEnd
					{
						OFFSET 0.000000 0.000000 7.370709
						CHANNELS 3 Zrotation Yrotation Xrotation
						End Site
						{
							OFFSET 0.000000 0.000000 0.000000
						}
					}
				}
				JOINT RightLegEnd
				{
					OFFSET 0.000000 0.000000 0.000000
					CHANNELS 3 Zrotation Yrotation Xrotation
					End Site
					{
						OFFSET 0.000000 0.000000 0.000000
					}
				}
			}
			JOINT RightUpLegEnd
			{
				OFFSET 0.000000 0.000000 0.000000
				CHANNELS 3 Zrotation Yrotation Xrotation
				End Site
				{
					OFFSET 0.000000 0.000000 0.000000
				}
			}
		}
	}
	JOINT LeftUpLeg
	{
		OFFSET 11.315661 0.000000 0.000000
		CHANNELS 3 Zrotation Yrotation Xrotation
		JOINT LeftLeg
		{
			OFFSET 0.000000 -38.200325 -0.000000
			CHANNELS 3 Zrotation Yrotation Xrotation
			JOINT LeftFoot
			{
				OFFSET 0.000000 -39.900856 -0.000000
				CHANNELS 3 Zrotation Yrotation Xrotation
				JOINT LeftToeBase
				{
					OFFSET 0.000000 -0.000000 15.261641
					CHANNELS 3 Zrotation Yrotation Xrotation
					JOINT LeftToeBaseEnd
					{
						OFFSET -0.000000 0.000000 7.539996
						CHANNELS 3 Zrotation Yrotation Xrotation
						End Site
						{
							OFFSET 0.000000 0.000000 0.000000
						}
					}
				}
				JOINT LeftLegEnd
				{
					OFFSET 0.000000 0.000000 0.000000
					CHANNELS 3 Zrotation Yrotation Xrotation
					End Site
					{
						OFFSET 0.000000 0.000000 0.000000
					}
				}
			}
			JOINT LeftUpLegEnd
			{
				OFFSET 0.000000 0.000000 0.000000
				CHANNELS 3 Zrotation Yrotation Xrotation
				End Site
				{
					OFFSET 0.000000 0.000000 0.000000
				}
			}
		}
	}
}
MOTION
Frames: 4
Frame Time: 0.016667
-0.053862 88.510376 0.047970 0.197727 5.495818 -12.530405 -1.080882 -0.061654 7.642771 -0.642327 0.432644 1.865627 0.289902 -0.766464 6.862514 0.604995 -0.550302 4.907179 2.277886 -2.891257 7.340263 -0.616691 -2.606388 -1.841979 -0.196041 0.234570 -21.420267 -0.000000 0.000000 0.000000 87.183083 0.218130 4.801581 65.347122 20.405319 1.445501 0.567603 19.488319 76.484390 105.315086 61.508919 90.923096 2.075430 -0.516039 43.938953 0.000000 0.000000 -5.129991 -0.000000 0.000000 -3.562497 0.000000 0.000000 0.000000 -24.062614 16.591646 12.937763 -0.000001 -1.005946 -0.000012 0.000004 -0.007128 0.000019 -0.000000 0.000000 -0.000000 -23.526007 6.960382 6.116314 -0.000000 -1.004282 -0.000002 0.000014 -0.010991 -0.000009 -0.000000 -0.000000 -0.000000 -17.671928 -8.995045 -1.947355 0.000001 2.006321 -0.000011 0.000005 0.002700 0.000005 -0.000000 -0.000000 -0.000000 -6.909401 -25.576891 -11.096971 -0.000000 4.000000 -0.000000 -0.000000 0.000000 0.000000 -0.000000 -0.000000 -0.000000 0.000000 -0.000000 0.000000 0.000000 -0.000000 0.000000 -90.067963 0.017722 10.719442 -63.330997 -2.372358 6.704050 0.927362 -19.046864 83.363640 35.333771 4.353363 7.824188 -4.537570 1.024823 42.716198 0.000000 0.000000 -11.160001 0.000000 -0.000000 -7.750000 -0.000000 -0.000000 -0.000000 20.746576 16.803013 8.994505 -0.000001 -1.006531 0.000014 0.000007 -0.013647 -0.000036 0.000000 0.000000 0.000000 19.254814 6.995238 2.172425 0.000000 -1.008512 0.000001 -0.000050 -0.019714 -0.000045 0.000000 0.000000 0.000000 21.038668 -8.954197 -5.782932 -0.000001 2.004004 0.000006 0.000019 0.009303 -0.000018 0.000000 0.000000 0.000000 26.520943 -25.278414 -14.470909 -0.000002 4.001604 0.000003 -0.000001 0.000711 -0.000000 -0.000000 0.000000 0.000000 0.000000 0.000000 0.000000 -0.000000 -0.000000 0.000000 1.149603 2.360329 12.487894 -0.065845 -0.319576 11.210213 -4.938536 0.009769 14.716039 -0.265321 0.360230 -19.792936 -0.000000 0.000000 0.000000 0.000000 0.000000 -0.000000 -0.000000 0.000000 -0.000000 1.156514 7.679020 16.322422 0.053642 0.627592 5.856761 1.216475 5.298784 16.883240 0.919706 -0.800674 -18.418900 -0.000000 -0.000000 -0.000000 0.000000 0.000000 -0.000000 0.000000 -0.000000 -0.000000 
-0.069184 88.480072 0.095263 0.121360 4.894262 -12.871031 -1.045909 -0.097168 7.706483 -0.603217 0.373689 1.838379 0.321391 -0.815917 7.194728 0.620057 -0.593108 5.016317 1.924616 -2.678368 7.455307 -0.673574 -2.499281 -1.863739 -0.293186 0.268516 -21.384670 -0.000000 0.000000 0.000000 87.370087 0.206271 4.885693 66.092003 19.910782 3.214773 0.445530 19.512951 77.725639 107.109863 61.381920 92.629234 2.038914 -0.507410 43.957642 0.000000 0.000000 -5.040000 -0.000000 0.000000 -3.500000 0.000000 0.000000 0.000000 -24.358902 16.609756 12.659437 -0.000001 -1.006451 -0.000013 0.000004 -0.007733 0.000020 -0.000000 0.000000 0.000000 -23.718813 6.961630 6.031569 -0.000000 -1.004646 -0.000003 0.000013 -0.010596 -0.000008 -0.000000 -0.000000 -0.000000 -17.857317 -8.994898 -1.945229 0.000001 2.006858 -0.000012 0.000006 0.002969 0.000006 -0.000000 -0.000000 -0.000000 -7.146801 -25.580498 -11.043190 -0.000000 4.000000 -0.000000 -0.000000 0.000000 0.000000 -0.000000 -0.000000 -0.000000 0.000000 -0.000000 0.000000 0.000000 0.000000 -0.000000 -90.381340 0.079467 10.765261 -64.291656 -4.292321 6.825537 0.817672 -19.573626 82.562180 35.686218 3.098724 6.491058 -4.389979 0.997353 42.788380 -0.000000 0.000000 -10.800000 0.000000 -0.000000 -7.500000 -0.000000 -0.000000 -0.000000 21.342718 16.830439 8.339902 -0.000001 -1.006483 0.000013 0.000007 -0.013659 -0.000036 0.000000 0.000000 0.000000 19.812420 6.997140 1.646040 0.000000 -1.008636 0.000001 -0.000051 -0.019869 -0.000045 0.000000 0.000000 0.000000 21.413244 -8.947247 -6.257616 -0.000001 2.004217 0.000007 0.000019 0.009719 -0.000019 0.000000 0.000000 0.000000 26.682289 -25.231750 -14.941878 -0.000002 4.001576 0.000003 -0.000001 0.000699 -0.000000 -0.000000 0.000000 0.000000 0.000000 0.000000 0.000000 -0.000000 -0.000000 0.000000 1.276718 2.592731 12.775495 -0.065859 -0.319881 11.226789 -4.982029 0.336989 14.645740 -0.252166 0.379304 -19.722767 -0.000000 0.000000 -0.000000 0.000000 0.000000 -0.000000 -0.000000 0.000000 -0.000000 1.330533 7.924747 16.802605 0.053649 0.629905 5.832800 1.141759 5.623588 16.663277 0.931657 -0.804071 -18.306637 -0.000000 -0.000000 -0.000000 0.000000 0.000000 -0.000000 0.000000 -0.000000 -0.000000 
-0.087354 88.448975 0.140932 0.037427 4.216163 -13.223927 -0.950071 -0.139747 7.778101 -0.499407 0.330988 1.810798 0.300965 -0.743228 7.547713 0.541757 -0.569428 5.149258 1.559548 -2.444393 7.487132 -0.689246 -2.371708 -1.910071 -0.340221 0.282040 -21.295965 -0.000000 0.000000 0.000000 87.489296 0.204552 5.078109 67.100899 19.338688 4.752171 0.360964 19.527584 78.925217 109.414436 61.002914 95.059631 1.655319 -0.417491 44.152225 0.000000 0.000000 -4.094977 -0.000000 0.000000 -2.843742 0.000000 0.000000 0.000000 -26.050333 16.600595 12.752722 -0.000001 -1.006948 -0.000014 0.000004 -0.008329 0.000022 -0.000000 -0.000000 0.000000 -25.093437 6.959888 6.071836 -0.000000 -1.005004 -0.000003 0.000013 -0.010145 -0.000008 -0.000000 -0.000000 -0.000000 -18.681446 -8.994035 -2.039012 0.000001 2.007387 -0.000013 0.000006 0.003237 0.000006 -0.000000 -0.000000 -0.000000 -7.328322 -25.552822 -11.394658 -0.000000 4.000000 -0.000000 -0.000000 0.000000 0.000000 -0.000000 -0.000000 -0.000000 0.000000 -0.000000 0.000000 0.000000 0.000000 -0.000000 -90.749298 0.154549 10.819078 -65.066093 -6.032351 7.012048 0.756624 -19.960981 81.656425 35.852020 1.843933 5.058594 -4.260877 0.973106 42.851536 -0.000000 0.000000 -10.484996 0.000000 0.000000 -7.281249 -0.000000 -0.000000 -0.000000 22.303240 16.856546 7.550362 -0.000001 -1.006393 0.000013 0.000007 -0.013589 -0.000036 0.000000 0.000000 -0.000000 20.760609 6.995721 1.036120 0.000000 -1.008712 0.000001 -0.000051 -0.019944 -0.000046 0.000000 0.000000 0.000000 22.224844 -8.938921 -6.868956 -0.000001 2.004416 0.000007 0.000020 0.010096 -0.000019 0.000000 0.000000 0.000000 27.373335 -25.148766 -15.745370 -0.000002 4.001538 0.000003 -0.000001 0.000682 -0.000000 -0.000000 0.000000 0.000000 0.000000 -0.000000 0.000000 -0.000000 -0.000000 0.000000 1.423941 2.871162 13.054926 -0.065873 -0.320331 11.263347 -5.026009 0.697166 14.577891 -0.238862 0.392681 -19.654350 -0.000000 0.000000 0.000000 0.000000 0.000000 0.000000 -0.000000 0.000000 -0.000000 1.525188 8.210258 17.305088 0.053655 0.632311 5.811908 1.062688 5.986998 16.431622 0.942664 -0.813899 -18.193138 -0.000000 -0.000000 -0.000000 0.000000 0.000000 -0.000000 0.000000 0.000000 -0.000000 
-0.107923 88.420959 0.179600 -0.051993 3.455206 -13.556960 -0.798280 -0.166022 7.858760 -0.342589 0.281170 1.776321 0.228957 -0.587749 7.895403 0.390942 -0.513849 5.310700 1.197735 -2.149368 7.375239 -0.680840 -2.180599 -1.985733 -0.354681 0.289534 -21.122984 -0.000000 0.000000 0.000000 87.474091 0.219899 5.393015 68.429138 18.776058 6.059829 0.267877 19.490091 80.262276 111.838852 60.521606 97.582108 1.162828 -0.299005 44.402401 -0.000000 0.000000 -2.880000 -0.000000 -0.000000 -2.000000 -0.000000 -0.000000 0.000000 -28.234613 16.595348 12.891475 -0.000001 -1.007434 -0.000015 0.000005 -0.008911 0.000024 0.000000 -0.000000 -0.000000 -26.912556 6.960497 6.120081 -0.000000 -1.005353 -0.000003 0.000012 -0.009642 -0.000008 0.000000 -0.000000 -0.000000 -19.831177 -8.993710 -2.160051 0.000001 2.007902 -0.000014 0.000007 0.003504 0.000007 0.000000 0.000000 -0.000000 -7.674375 -25.518417 -11.831740 0.000000 4.000000 0.000000 0.000000 0.000000 0.000000 0.000000 0.000000 -0.000000 0.000000 -0.000000 0.000000 0.000000 -0.000000 -0.000000 -91.088196 0.223016 10.824076 -65.670982 -7.327310 7.190162 0.704743 -20.514553 80.807434 35.670105 1.046295 3.807404 -4.095012 0.941306 42.933075 0.000000 -0.000000 -10.080000 0.000000 0.000000 -7.000000 0.000000 -0.000000 -0.000000 23.389059 16.884630 6.878337 -0.000001 -1.006264 0.000013 0.000007 -0.013441 -0.000036 -0.000000 -0.000000 -0.000000 21.816780 6.999714 0.520228 0.000000 -1.008743 0.000001 -0.000051 -0.019942 -0.000046 -0.000000 -0.000000 -0.000000 23.138020 -8.925896 -7.417881 -0.000001 2.004598 0.000007 0.000021 0.010432 -0.000020 0.000000 -0.000000 -0.000000 28.165386 -25.059929 -16.527256 -0.000002 4.001490 0.000003 -0.000001 0.000661 -0.000000 0.000000 -0.000000 -0.000000 0.000000 -0.000000 0.000000 -0.000000 -0.000000 0.000000 1.585421 3.190392 13.285122 -0.065887 -0.320794 11.326367 -5.072084 1.099794 14.527027 -0.226724 0.401962 -19.600786 -0.000000 -0.000000 0.000000 0.000000 0.000000 -0.000000 -0.000000 0.000000 -0.000000 1.738760 8.549637 17.792149 0.053662 0.634782 5.799273 0.982004 6.375259 16.204767 0.951529 -0.823849 -18.093130 -0.000000 -0.000000 -0.000000 0.000000 0.000000 -0.000000 0.000000 0.000000 -0.000000 
